# AST/ASF file generated using VICON BodyLanguage
# -----------------------------------------------
:version 1.10
:name VICON
:units
  mass 1.0
  length 0.45
  angle deg
:documentation
   .ast/.asf automatically generated from VICON data using
   VICON BodyBuilder and BodyLanguage model FoxedUp or BRILLIANT.MOD
:root
   order TX TY TZ RX RY RZ
   axis XYZ
   position 0 0 0  
   orientation 0 0 0 
:bonedata
  begin
     id 1 
     name lhipjoint
     direction 0.537252 -0.787203 0.302774 
     length 2.29576 
     axis 0 0 0  XYZ
  end
  begin
     id 2 
     name lfemur
     direction 0.34202 -0.939693 0  
     length 7.31114  
     axis 0 0 20  XYZ
    dof rx ry rz
    limits (-160.0 20.0)
           (-70.0 70.0)
           (-60.0 70.0)
  end
  begin
     id 3 
     name ltibia
     direction 0.34202 -0.939693 0   
     length 8.36008   
     axis 0 0 20   XYZ
    dof rx
    limits (-10.0 170.0)
  end
  begin
     id 4 
     name lfoot
     direction 0.0969116 -0.266263 0.959016   
     length 2.16704   
     axis -90 7.62852e-016 20   XYZ
    dof rx rz
    limits (-45.0 90.0)
           (-70.0 20.0)
  end
  begin
     id 5 
     name ltoes
     direction 1.53563e-011 -4.21779e-011 1   
     length 1.08338   
     axis -90 7.62852e-016 20   XYZ
    dof rx
    limits (-90.0 20.0)
  end
  begin
     id 6 
     name rhipjoint
     direction -0.588228 -0.754791 0.290308   
     length 2.39434  
     axis 0 0 0  XYZ 
  end
  begin
     id 7 
     name rfemur
     direction -0.34202 -0.939693 0   
     length 7.45207   
     axis 0 0 -20   XYZ
    dof rx ry rz
    limits (-160.0 20.0)
           (-70.0 70.0)
           (-70.0 60.0)
  end
  begin
     id 8 
     name rtibia
     direction -0.34202 -0.939693 0   
     length 8.03565   
     axis 0 0 -20   XYZ
    dof rx
    limits (-10.0 170.0)
 end
 begin
     id 9 
     name rfoot
     direction -0.107009 -0.294004 0.949795   
     length 2.11509  
     axis -90 -7.62852e-016 -20   XYZ
    dof rx rz
    limits (-45.0 90.0)
           (-20.0 70.0)
  end
  begin
     id 10 
     name rtoes
     direction -1.53533e-011 -4.22004e-011 1   
     length 1.05493   
     axis -90 -7.62852e-016 -20   XYZ
    dof rx
    limits (-90.0 20.0)
  end
  begin
     id 11 
     name lowerback
     direction -0.0115208 0.997969 -0.0626515   
     length 2.03153   
     axis 0 0 0   XYZ
    dof rx ry rz
    limits (-20.0 45.0)
           (-30.0 30.0)
           (-30.0 30.0)
  end
  begin
     id 12 
     name upperback
     direction -0.00423475 0.999974 -0.00583614   
     length 2.03619   
     axis 0 0 0   XYZ
    dof rx ry rz
    limits (-20.0 45.0)
           (-30.0 30.0)
           (-30.0 30.0)
  end
  begin
     id 13 
     name thorax
     direction 0.00289429 0.999728 0.0231573   
     length 2.03921   
     axis 0 0 0   XYZ
    dof rx ry rz
    limits (-20.0 45.0)
           (-30.0 30.0)
           (-30.0 30.0)
  end
  begin
     id 14 
     name lowerneck
     direction 0.0188995 0.987777 0.154721   
     length 1.78836   
     axis 0 0 0   XYZ
    dof rx ry rz
    limits (-20.0 45.0)
           (-30.0 30.0)
           (-30.0 30.0)
  end
  begin
     id 15 
     name upperneck
     direction -0.00612612 0.992995 -0.118   
     length 1.81789   
     axis 0 0 0   XYZ
    dof rx ry rz
    limits (-20.0 45.0)
           (-30.0 30.0)
           (-30.0 30.0)
  end
  begin
     id 16
     name head
     direction -0.00420226 0.998397 -0.0564482  
     length 1.82234  
     axis 0 0 0   XYZ
    dof rx ry rz
    limits (-20.0 45.0)
           (-30.0 30.0)
           (-30.0 30.0)
  end
  begin
     id 17 
     name lclavicle
     direction 0.916488 0.396539 0.0529676  
     length 3.51732  
     axis 0 0 0   XYZ
    dof ry rz
    limits (-20.0 10.0)
           (0.0 20.0)
  end
  begin
     id 18 
     name lhumerus
     direction 1 -4.4896e-011 8.36962e-028   
     length 5.45077   
     axis 180 -30 -90   XYZ
    dof rx ry rz
    limits (-60.0 90.0)
           (-90.0 90.0)
           (-90.0 90.0)
  end
  begin
     id 19
     name lradius
     direction 1 -4.48962e-011 3.01407e-027   
     length 3.05488   
     axis 180 -30 -90   XYZ
    dof rx
    limits (-10.0 170.0)
  end
  begin
     id 20
     name lwrist
     direction 1 -4.49002e-011 4.72961e-027   
     length 1.52744   
     axis -2.72261e-015 90 90   XYZ
    dof ry
    limits (-180.0 0.0)
 end
  begin
     id 21 
     name lhand
     direction 1 -4.4899e-011 9.45681e-027   
     length 0.638818   
     axis -6.0311e-015 90 90   XYZ
    dof rx rz
    limits (-90.0 90.0)
           (-45.0 45.0)
  end
  begin
     id 22 
     name lfingers
     direction 1 -4.48871e-011 1.88632e-026   
     length 0.515032   
     axis -1.20625e-014 90 90   XYZ
    dof rx
    limits (0.0 90.0)
  end
  begin
     id 23
     name lthumb
     direction 0.707107 -6.34964e-011 0.707107   
     length 0.739485   
     axis -90 45 6.32835e-014   XYZ
    dof rx rz
    limits (-45.0 45.0)
           (-45.0 45.0)
  end
  begin
     id 24 
     name rclavicle
     direction -0.949427 0.303202 0.0815894   
     length 3.76167  
     axis 0 0 0   XYZ 
    dof ry rz
    limits (-10.0 20.0)
           (-20.0 0.0)
  end
  begin
     id 25 
     name rhumerus
     direction -1 -4.48971e-011 -6.43969e-018  
     length 4.88702   
     axis 180 30 90   XYZ
    dof rx ry rz
    limits (-90.0 60.0)
           (-90.0 90.0)
           (-90.0 90.0)
  end
  begin
     id 26 
     name rradius
     direction -1 -4.48987e-011 5.46662e-027   
     length 3.22603   
     axis 180 30 90   XYZ
    dof rx
    limits (-10.0 170.0)
  end
  begin
     id 27 
     name rwrist
     direction -1 -4.48956e-011 4.72476e-027   
     length 1.61302   
     axis -2.72261e-015 -90 -90   XYZ
    dof ry
    limits (-180.0 0.0)
  end
  begin
     id 28
     name rhand
     direction -1 -4.4889e-011 9.43571e-027   
     length 0.716293   
     axis -6.0311e-015 -90 -90   XYZ
    dof rx rz
    limits (-90.0 90.0)
           (-45.0 45.0)
  end
  begin
     id 29
     name rfingers
     direction -1 -4.48887e-011 1.88701e-026   
     length 0.577494   
     axis -1.20625e-014 -90 -90   XYZ
    dof rx
    limits (0.0 90.0)
  end
  begin
     id 30
     name rthumb
     direction -0.707107 -6.34825e-011 0.707107   
     length 0.829169   
     axis -90 -45 -6.32835e-014   XYZ
    dof rx rz
    limits (-45.0 45.0)
           (-45.0 45.0)
  end
:hierarchy
  begin
    root lhipjoint rhipjoint lowerback
    lhipjoint lfemur
    lfemur ltibia
    ltibia lfoot
    lfoot ltoes
    rhipjoint rfemur
    rfemur rtibia
    rtibia rfoot
    rfoot rtoes
    lowerback upperback
    upperback thorax
    thorax lowerneck lclavicle rclavicle
    lowerneck upperneck
    upperneck head
    lclavicle lhumerus
    lhumerus lradius
    lradius lwrist
    lwrist lhand lthumb
    lhand lfingers
    rclavicle rhumerus
    rhumerus rradius
    rradius rwrist
    rwrist rhand rthumb
    rhand rfingers
  end

#!OML:ASF F:\VICON\USERDATA\INSTALL\rory3\rory3.ASF
:FULLY-SPECIFIED
:DEGREES
1755
root 1.26467 18.5456 -0.0829306 27.1164 76.2186 11.8436
lowerback -8.95646 -2.12639 -1.23282
upperback -2.798 -2.65658 0.0532357
thorax 2.17551 -1.29739 0.463959
lowerneck -6.86206 -19.8253 -10.0844
upperneck 11.0068 -27.3824 11.6989
head 7.46242 -12.9434 2.23498
rclavicle 7.11649e-014 3.37934e-014
rhumerus 25.2242 -46.7646 -38.7077
rradius 53.5842
rwrist -28.5789
rhand -32.829 6.84795
rfingers 7.12502
rthumb -6.04912 -23.0457
lclavicle 7.11649e-014 3.37934e-014
lhumerus -90.0978 -36.5112 109.624
lradius 91.5543
lwrist -6.55862
lhand -31.036 5.73974
lfingers 7.12502
lthumb -4.31792 35.6757
rfemur -12.5305 5.62544 9.44271
rtibia 7.95139e-016
rfoot -2.97671 5.5136
rtoes -7.19791
lfemur -16.048 9.62155 -24.2508
ltibia 14.8366
lfoot -14.2311 5.87286
ltoes -25.653
1756
root 1.26569 18.5447 -0.0952424 27.048 76.2093 11.8654
lowerback -8.78238 -2.07848 -0.983176
upperback -2.69482 -2.62342 0.145386
thorax 2.17876 -1.28293 0.426886
lowerneck -6.75272 -19.8391 -10.1151
upperneck 10.9088 -27.4035 11.7826
head 7.43183 -12.9581 2.27237
rclavicle -9.2087e-014 3.57812e-015
rhumerus 25.3014 -46.8936 -38.7075
rradius 53.5227
rwrist -28.5598
rhand -32.8777 6.43843
rfingers 7.12502
rthumb -6.09611 -23.4539
lclavicle -9.2087e-014 3.57812e-015
lhumerus -89.9637 -36.3296 109.499
lradius 91.4458
lwrist -6.68768
lhand -30.911 5.81062
lfingers 7.12502
lthumb -4.19718 35.749
rfemur -12.4402 5.63576 9.39975
rtibia 4.45278e-014
rfoot -2.99001 5.50011
rtoes -7.27697
lfemur -15.9279 9.78841 -24.3149
ltibia 14.7702
lfoot -14.1847 5.72953
ltoes -25.7896
1757
root 1.26188 18.5446 -0.11073 27.4356 76.1938 12.2709
lowerback -8.60804 -2.05486 -0.824289
upperback -2.61971 -2.6133 0.24228
thorax 2.15743 -1.27936 0.443547
lowerneck -6.78652 -19.8464 -10.1959
upperneck 10.9544 -27.4131 11.831
head 7.47183 -12.9576 2.28553
rclavicle 1.64246e-014 -6.75868e-015
rhumerus 25.4261 -47.016 -38.7101
rradius 53.4406
rwrist -28.5775
rhand -32.8679 6.84594
rfingers 7.12502
rthumb -6.08672 -23.0466
lclavicle 1.64246e-014 -6.75868e-015
lhumerus -89.8084 -36.1726 109.46
lradius 91.2803
lwrist -6.75844
lhand -30.9386 5.94633
lfingers 7.12502
lthumb -4.22389 35.8842
rfemur -12.4496 5.59043 9.24774
rtibia -1.11319e-014
rfoot -3.00683 5.4512
rtoes -7.60374
lfemur -15.9235 9.87927 -24.486
ltibia 14.709
lfoot -14.1502 5.56928
ltoes -25.6904
1758
root 1.25332 18.5459 -0.127138 28.3757 76.2209 13.1653
lowerback -8.45833 -2.03987 -0.734332
upperback -2.57194 -2.60585 0.294124
thorax 2.12238 -1.27661 0.451765
lowerneck -6.89789 -19.8886 -10.1297
upperneck 11.0227 -27.4632 11.7608
head 7.49791 -12.9752 2.23762
rclavicle -4.35338e-014 -1.23246e-014
rhumerus 25.4259 -47.1333 -38.6267
rradius 53.3892
rwrist -28.6314
rhand -32.9488 6.94513
rfingers 7.12502
rthumb -6.16481 -22.9452
lclavicle -4.35338e-014 -1.23246e-014
lhumerus -89.7431 -36.2008 109.521
lradius 91.1485
lwrist -6.70642
lhand -30.9984 6.13944
lfingers 7.12502
lthumb -4.28155 36.0762
rfemur -12.518 5.43555 8.99554
rtibia 3.02153e-014
rfoot -3.0183 5.46391
rtoes -8.11273
lfemur -16.0206 9.97652 -24.781
ltibia 14.6348
lfoot -14.036 5.27551
ltoes -25.1708
1759
root 1.24502 18.5462 -0.140997 28.7865 76.2996 13.5281
lowerback -8.26208 -2.03504 -0.539751
upperback -2.56421 -2.6211 0.402061
thorax 2.01849 -1.28457 0.459479
lowerneck -6.83091 -19.88 -10.1407
upperneck 11.0342 -27.4583 11.7999
head 7.4979 -12.9726 2.25629
rclavicle 1.76421e-014 9.54166e-015
rhumerus 25.4857 -47.2546 -38.7716
rradius 53.3858
rwrist -28.3474
rhand -33.0543 6.36549
rfingers 7.12502
rthumb -6.2666 -23.5218
lclavicle 1.76421e-014 9.54166e-015
lhumerus -89.741 -36.123 109.591
lradius 90.9786
lwrist -6.66791
lhand -31.0182 6.13382
lfingers 7.12502
lthumb -4.30069 36.0702
rfemur -12.5799 5.30346 8.90821
rtibia -3.02153e-014
rfoot -2.98369 5.43955
rtoes -8.06917
lfemur -16.1058 10.0803 -24.9005
ltibia 14.5677
lfoot -13.9806 4.93162
ltoes -24.3178
1760
root 1.23359 18.5473 -0.157083 29.2214 76.4157 13.8667
lowerback -8.0563 -2.0434 -0.296123
upperback -2.59316 -2.65616 0.534965
thorax 1.87057 -1.30201 0.464761
lowerneck -6.68688 -19.8823 -10.2999
upperneck 11.0398 -27.4631 11.8704
head 7.5093 -12.9816 2.30344
rclavicle 2.44505e-014 -2.70347e-014
rhumerus 25.5537 -47.3747 -38.9824
rradius 53.4727
rwrist -28.1605
rhand -32.8938 6.15119
rfingers 7.12502
rthumb -6.11173 -23.7407
lclavicle 2.44505e-014 -2.70347e-014
lhumerus -89.7196 -35.9905 109.638
lradius 90.8029
lwrist -6.7523
lhand -31.0566 6.03023
lfingers 7.12502
lthumb -4.33777 35.9658
rfemur -12.6866 5.13269 8.84159
rtibia -1.03368e-014
rfoot -2.96136 5.40487
rtoes -8.55118
lfemur -16.3202 10.4141 -25.0589
ltibia 14.5539
lfoot -13.762 4.42409
ltoes -24.4435
